Coordinates
version=1
nRows=12
nColumns=33
inDegrees=yes

Units are S.I. units (second, meters, Newtons, ...)
Angles are in degrees.

endheader
time	ground_thorax_rot_x	ground_thorax_rot_y	ground_thorax_rot_z	ground_thorax_tx	ground_thorax_ty	ground_thorax_tz	clav_prot_r	clav_elev_r	scapula_abduction_r	scapula_elevation_r	scapula_upward_rot_r	scapula_winging_r	shoulder_elv_r	plane_of_elev_r	axial_rot_r	elbow_flexion_r	pro_sup_r	wrist_flex_r	wrist_dev_r	clav_prot_l	clav_elev_l	scapula_abduction_l	scapula_elevation_l	scapula_upward_rot_l	scapula_winging_l	shoulder_elv_l	plane_of_elev_l	axial_rot_l	elbow_flexion_l	pro_sup_l	wrist_flex_l	wrist_dev_l
      6.69000000	    -34.22348171	    -18.21761054	     30.08879803	   -176.97187615	    815.95754079	      5.75253612	      6.16253465	    -45.00000000	     40.19343737	    -45.00000000	    -29.17599622	  -2621.24125108	  -2629.14161059	    147.22636705	   -115.77518403	    732.90408475	     22.62283266	     19.53774896	      7.85350945	     14.71782277	     38.01036781	    -37.57719483	    -45.00000000	    -45.00000000	   1523.17298895	  -2612.52935236	    134.20914988	   -179.99999979	     11.67027393	     26.70418896	      6.73525257	    -22.12135445
      6.70000000	    -34.37959267	    -17.90031297	     29.68452129	   -179.62200228	    816.95231632	      5.76602208	      6.14723375	    -45.00000000	     40.19985398	    -45.00000000	    -29.14344404	  -2621.32492304	  -2628.96761381	    147.15797752	   -115.84440042	    732.93544685	     22.12593650	     19.54958222	      7.80438539	     14.71418331	     37.97116229	    -37.58316511	    -45.00000000	    -45.00000000	   1523.30136639	  -2612.44057102	    134.21026552	   -179.99999979	     11.68985227	     26.37334633	      6.66601126	    -22.08671711
      6.71000000	    -34.54884908	    -17.56320083	     29.30707426	   -182.23234596	    817.91677211	      5.78229255	      6.12795021	    -45.00000000	     40.15736699	    -45.00000000	    -29.01294991	  -2621.41383731	  -2628.85178782	    147.15694119	   -115.96698383	    732.91209659	     21.63286945	     19.54073353	      7.72549336	     14.65150853	     38.01938686	    -37.60355067	    -45.00000000	    -45.00000000	   1523.35918944	  -2612.33711725	    134.27708131	   -179.99999979	     11.72445622	     26.09864417	      6.64881304	    -22.08207488
      6.72000000	    -34.70673988	    -17.24036021	     28.89784444	   -184.80510468	    818.85392605	      5.80040678	      6.11305630	    -45.00000000	     40.16658398	    -45.00000000	    -29.00731051	  -2621.48443894	  -2628.68400856	    147.08816410	   -116.04790792	    732.93678714	     21.14702124	     19.55061793	      7.68040848	     14.63660282	     37.98163939	    -37.59931045	    -45.00000000	    -45.00000000	   1523.47144300	  -2612.26599823	    134.28106084	   -179.99999979	     11.74106450	     25.86000481	      6.58404137	    -22.05202578
      6.73000000	    -34.74862817	    -17.15739632	     28.74726269	   -187.33718771	    819.76519598	      5.81885204	      6.18670098	    -45.00000000	     40.20488258	    -45.00000000	    -29.25186765	  -2621.57760140	  -2628.54484971	    147.02020155	   -115.94237769	    732.94662672	     20.63483498	     19.56462001	      7.73841388	     14.80695787	     37.65822748	    -37.42098258	    -45.00000000	    -45.00000000	   1523.71510032	  -2612.26141332	    134.11106258	   -179.99999979	     11.52956550	     25.61196738	      6.40017357	    -21.89892656
      6.74000000	    -34.85947205	    -16.96321613	     28.48604741	   -189.82727205	    820.65264090	      5.83612426	      6.26573292	    -45.00000000	     40.19845234	    -45.00000000	    -29.38992962	  -2621.64642681	  -2628.45238158	    146.94590541	   -115.97652961	    732.86830868	     20.07029899	     19.54704655	      7.74813392	     14.84433726	     37.51289543	    -37.33592934	    -45.00000000	    -45.00000000	   1523.80430370	  -2612.21005901	    134.13641747	   -179.99999979	     11.45179815	     25.41301968	      6.29716153	    -21.82391201
      6.75000000	    -35.13474738	    -16.41142658	     27.87380557	   -192.27149564	    821.51689367	      5.85099897	      6.06591165	    -45.00000000	     40.13125021	    -45.00000000	    -28.94774879	  -2621.68632803	  -2628.30650219	    147.02201957	   -116.32338389	    732.92279881	     19.58995327	     19.55701794	      7.55831308	     14.54384033	     37.89821255	    -37.49622691	    -45.00000000	    -45.00000000	   1523.80667375	  -2612.10366400	    134.28455700	   -179.99999979	     11.70713182	     25.37977799	      6.40087927	    -21.95734346
      6.76000000	    -35.15270538	    -16.36296468	     27.82336963	   -194.67032051	    822.35842123	      5.86333085	      6.22890528	    -45.00000000	     40.11673413	    -45.00000000	    -29.40733768	  -2621.78714549	  -2628.23760572	    146.87004684	   -116.13481931	    732.83350893	     19.14041363	     19.53412343	      7.60974441	     14.79097742	     37.48277648	    -37.29644314	    -45.00000000	    -45.00000000	   1523.95116373	  -2612.08001024	    134.19628580	   -179.99999979	     11.48892390	     25.29254090	      6.13650389	    -21.77305739
      6.77000000	    -35.30468923	    -16.08098282	     27.48798853	   -197.02170806	    823.17634096	      5.87412641	      6.20691890	    -45.00000000	     40.08607882	    -45.00000000	    -29.39681992	  -2621.86731148	  -2628.12055222	    146.86036041	   -116.24822347	    732.86176540	     18.69209166	     19.54561282	      7.57639472	     14.74406030	     37.46600614	    -37.27033546	    -45.00000000	    -45.00000000	   1524.03606308	  -2612.03166386	    134.19634651	   -179.99999979	     11.51158375	     25.32445888	      6.04841320	    -21.75258307
      6.78000000	    -35.52391998	    -15.62070835	     26.93256078	   -199.32500997	    823.96861379	      5.88571176	      6.06247291	    -45.00000000	     40.04216575	    -45.00000000	    -29.15918567	  -2621.88743240	  -2627.98346383	    146.88027532	   -116.48979555	    732.95244899	     18.32074979	     19.56395414	      7.41403131	     14.52170194	     37.73493511	    -37.32855715	    -45.00000000	    -45.00000000	   1524.04124709	  -2611.96197031	    134.29108028	   -179.99999979	     11.68817027	     25.45834102	      6.08173237	    -21.84218933
      6.79000000	    -35.60138672	    -15.53151283	     26.82243912	   -201.57986326	    824.73214169	      5.90129881	      6.14530055	    -45.00000000	     39.97351047	    -45.00000000	    -29.42785522	  -2621.98577875	  -2627.93950163	    146.79131283	   -116.41707536	    732.91381081	     18.00959110	     19.54581130	      7.38630051	     14.66293277	     37.48026175	    -37.18964918	    -45.00000000	    -45.00000000	   1524.16153536	  -2611.93443873	    134.27104583	   -179.99999979	     11.57649098	     25.58462707	      5.85015402	    -21.71673400
      6.80000000	    -35.73161115	    -15.28984072	     26.53016032	   -203.78421976	    825.46295074	      5.92421257	      6.14021422	    -45.00000000	     39.93088333	    -45.00000000	    -29.50012624	  -2622.03928708	  -2627.85214127	    146.76776815	   -116.51676775	    732.92610095	     17.70481545	     19.54324245	      7.31929306	     14.61874301	     37.45949998	    -37.13093103	    -45.00000000	    -45.00000000	   1524.22126881	  -2611.90166305	    134.29401030	   -179.99999979	     11.59317475	     25.79766477	      5.72967889	    -21.68870467
